<svg viewBox="0 0 100 100" xmlns="http://www.w3.org/2000/svg">
  <rect width="100" height="100" rx="14" fill="#87CEEB"/>
  <circle cx="78" cy="19" r="11" fill="#FFD54F"/>
  <ellipse cx="16" cy="26" rx="14" ry="9" fill="#fff" opacity="0.9"/>
  <ellipse cx="27" cy="23" rx="12" ry="8" fill="#fff" opacity="0.95"/>
  <ellipse cx="38" cy="26" rx="10" ry="7" fill="#fff" opacity="0.85"/>
  <ellipse cx="54" cy="31" rx="11" ry="7" fill="#fff" opacity="0.8"/>
  <ellipse cx="63" cy="28" rx="9" ry="6" fill="#fff" opacity="0.85"/>
  <rect x="0" y="74" width="100" height="26" fill="#5D8A3C"/>
  <rect x="0" y="74" width="100" height="8" fill="#6FAA44"/>
  <rect x="54" y="54" width="5" height="22" rx="2" fill="#4E342E"/>
  <ellipse cx="61" cy="51" rx="14" ry="11" fill="#2E7D32"/>
  <ellipse cx="61" cy="44" rx="11" ry="9" fill="#388E3C"/>
  <ellipse cx="61" cy="38" rx="8" ry="7" fill="#43A047"/>
  <rect x="8" y="65" width="38" height="4" rx="2" fill="#8D6E63"/>
  <rect x="8" y="58" width="38" height="3" rx="1.5" fill="#A1887F"/>
  <rect x="8" y="52" width="38" height="3" rx="1.5" fill="#A1887F"/>
  <rect x="10" y="50" width="3" height="20" rx="1.5" fill="#6D4C41"/>
  <rect x="43" y="50" width="3" height="20" rx="1.5" fill="#6D4C41"/>
  <rect x="14" y="68" width="3" height="8" rx="1.5" fill="#6D4C41"/>
  <rect x="39" y="68" width="3" height="8" rx="1.5" fill="#6D4C41"/>
</svg>
